<mxfile host="app.diagrams.net" agent="Mozilla/5.0 (Windows NT 10.0; Win64; x64) AppleWebKit/537.36 (KHTML, like Gecko) Chrome/140.0.0.0 Safari/537.36 Edg/140.0.0.0" version="28.2.0">
  <diagram name="หน้า-1" id="eUxiDGaph87goB3MmdU6">
    <mxGraphModel dx="1418" dy="786" grid="1" gridSize="10" guides="1" tooltips="1" connect="1" arrows="1" fold="1" page="1" pageScale="1" pageWidth="2336" pageHeight="1654" math="0" shadow="0">
      <root>
        <mxCell id="0" />
        <mxCell id="1" parent="0" />
        <mxCell id="IIilCcqDhFFno7Ei3CsS-1" value="User function" style="swimlane;whiteSpace=wrap;html=1;" parent="1" vertex="1">
          <mxGeometry x="320" y="80" width="200" height="440" as="geometry">
            <mxRectangle x="400" y="200" width="130" height="30" as="alternateBounds" />
          </mxGeometry>
        </mxCell>
        <mxCell id="IIilCcqDhFFno7Ei3CsS-5" value="Browse" style="rounded=1;whiteSpace=wrap;html=1;" parent="IIilCcqDhFFno7Ei3CsS-1" vertex="1">
          <mxGeometry x="40" y="200" width="120" height="40" as="geometry" />
        </mxCell>
        <mxCell id="IIilCcqDhFFno7Ei3CsS-6" value="Comment" style="rounded=1;whiteSpace=wrap;html=1;" parent="IIilCcqDhFFno7Ei3CsS-1" vertex="1">
          <mxGeometry x="40" y="280" width="120" height="40" as="geometry" />
        </mxCell>
        <mxCell id="IIilCcqDhFFno7Ei3CsS-51" value="Statistics" style="rounded=1;whiteSpace=wrap;html=1;" parent="IIilCcqDhFFno7Ei3CsS-1" vertex="1">
          <mxGeometry x="40" y="360" width="120" height="40" as="geometry" />
        </mxCell>
        <mxCell id="IIilCcqDhFFno7Ei3CsS-7" value="Login" style="rounded=1;whiteSpace=wrap;html=1;" parent="IIilCcqDhFFno7Ei3CsS-1" vertex="1">
          <mxGeometry x="40" y="120" width="120" height="40" as="geometry" />
        </mxCell>
        <mxCell id="IIilCcqDhFFno7Ei3CsS-8" value="Register" style="rounded=1;whiteSpace=wrap;html=1;" parent="IIilCcqDhFFno7Ei3CsS-1" vertex="1">
          <mxGeometry x="40" y="40" width="120" height="40" as="geometry" />
        </mxCell>
        <mxCell id="IIilCcqDhFFno7Ei3CsS-9" value="API Before login Server" style="swimlane;whiteSpace=wrap;html=1;" parent="1" vertex="1">
          <mxGeometry x="680" y="80" width="440" height="280" as="geometry">
            <mxRectangle x="400" y="200" width="130" height="30" as="alternateBounds" />
          </mxGeometry>
        </mxCell>
        <mxCell id="eRz7YMECNyyjDCqZuOSM-28" style="edgeStyle=orthogonalEdgeStyle;rounded=0;orthogonalLoop=1;jettySize=auto;html=1;entryX=0;entryY=0.25;entryDx=0;entryDy=0;exitX=1;exitY=0.25;exitDx=0;exitDy=0;" edge="1" parent="IIilCcqDhFFno7Ei3CsS-9" source="IIilCcqDhFFno7Ei3CsS-11" target="IIilCcqDhFFno7Ei3CsS-12">
          <mxGeometry relative="1" as="geometry">
            <Array as="points">
              <mxPoint x="250" y="50" />
              <mxPoint x="250" y="50" />
            </Array>
          </mxGeometry>
        </mxCell>
        <mxCell id="eRz7YMECNyyjDCqZuOSM-30" value="Username" style="edgeLabel;html=1;align=center;verticalAlign=middle;resizable=0;points=[];" vertex="1" connectable="0" parent="eRz7YMECNyyjDCqZuOSM-28">
          <mxGeometry x="-0.195" y="1" relative="1" as="geometry">
            <mxPoint x="12" y="1" as="offset" />
          </mxGeometry>
        </mxCell>
        <mxCell id="eRz7YMECNyyjDCqZuOSM-39" style="edgeStyle=orthogonalEdgeStyle;rounded=0;orthogonalLoop=1;jettySize=auto;html=1;entryX=0.25;entryY=0;entryDx=0;entryDy=0;exitX=0.25;exitY=1;exitDx=0;exitDy=0;" edge="1" parent="IIilCcqDhFFno7Ei3CsS-9" source="IIilCcqDhFFno7Ei3CsS-11" target="IIilCcqDhFFno7Ei3CsS-33">
          <mxGeometry relative="1" as="geometry" />
        </mxCell>
        <mxCell id="eRz7YMECNyyjDCqZuOSM-72" value="Password" style="edgeLabel;html=1;align=center;verticalAlign=middle;resizable=0;points=[];" vertex="1" connectable="0" parent="eRz7YMECNyyjDCqZuOSM-39">
          <mxGeometry x="-0.05" y="1" relative="1" as="geometry">
            <mxPoint x="-11" as="offset" />
          </mxGeometry>
        </mxCell>
        <mxCell id="IIilCcqDhFFno7Ei3CsS-11" value="Create account" style="rounded=1;whiteSpace=wrap;html=1;" parent="IIilCcqDhFFno7Ei3CsS-9" vertex="1">
          <mxGeometry x="40" y="40" width="120" height="40" as="geometry" />
        </mxCell>
        <mxCell id="eRz7YMECNyyjDCqZuOSM-79" style="edgeStyle=orthogonalEdgeStyle;rounded=0;orthogonalLoop=1;jettySize=auto;html=1;entryX=1;entryY=0.75;entryDx=0;entryDy=0;exitX=0.75;exitY=1;exitDx=0;exitDy=0;" edge="1" parent="IIilCcqDhFFno7Ei3CsS-9" source="IIilCcqDhFFno7Ei3CsS-12" target="eRz7YMECNyyjDCqZuOSM-20">
          <mxGeometry relative="1" as="geometry">
            <Array as="points">
              <mxPoint x="370" y="230" />
            </Array>
          </mxGeometry>
        </mxCell>
        <mxCell id="eRz7YMECNyyjDCqZuOSM-81" value="True /False" style="edgeLabel;html=1;align=center;verticalAlign=middle;resizable=0;points=[];" vertex="1" connectable="0" parent="eRz7YMECNyyjDCqZuOSM-79">
          <mxGeometry x="0.5032" y="2" relative="1" as="geometry">
            <mxPoint as="offset" />
          </mxGeometry>
        </mxCell>
        <mxCell id="IIilCcqDhFFno7Ei3CsS-12" value="Compare account" style="rounded=1;whiteSpace=wrap;html=1;" parent="IIilCcqDhFFno7Ei3CsS-9" vertex="1">
          <mxGeometry x="280" y="40" width="120" height="40" as="geometry" />
        </mxCell>
        <mxCell id="eRz7YMECNyyjDCqZuOSM-78" style="edgeStyle=orthogonalEdgeStyle;rounded=0;orthogonalLoop=1;jettySize=auto;html=1;entryX=0.25;entryY=1;entryDx=0;entryDy=0;exitX=1;exitY=0.25;exitDx=0;exitDy=0;" edge="1" parent="IIilCcqDhFFno7Ei3CsS-9" source="eRz7YMECNyyjDCqZuOSM-20" target="IIilCcqDhFFno7Ei3CsS-12">
          <mxGeometry relative="1" as="geometry" />
        </mxCell>
        <mxCell id="eRz7YMECNyyjDCqZuOSM-80" value="Username" style="edgeLabel;html=1;align=center;verticalAlign=middle;resizable=0;points=[];" vertex="1" connectable="0" parent="eRz7YMECNyyjDCqZuOSM-78">
          <mxGeometry x="-0.6102" relative="1" as="geometry">
            <mxPoint x="15" as="offset" />
          </mxGeometry>
        </mxCell>
        <mxCell id="eRz7YMECNyyjDCqZuOSM-20" value="Login" style="rounded=1;whiteSpace=wrap;html=1;" vertex="1" parent="IIilCcqDhFFno7Ei3CsS-9">
          <mxGeometry x="40" y="200" width="120" height="40" as="geometry" />
        </mxCell>
        <mxCell id="eRz7YMECNyyjDCqZuOSM-37" style="edgeStyle=orthogonalEdgeStyle;rounded=0;orthogonalLoop=1;jettySize=auto;html=1;entryX=0.25;entryY=0;entryDx=0;entryDy=0;exitX=0.25;exitY=1;exitDx=0;exitDy=0;" edge="1" parent="IIilCcqDhFFno7Ei3CsS-9" source="IIilCcqDhFFno7Ei3CsS-33" target="eRz7YMECNyyjDCqZuOSM-20">
          <mxGeometry relative="1" as="geometry" />
        </mxCell>
        <mxCell id="eRz7YMECNyyjDCqZuOSM-75" value="Password" style="edgeLabel;html=1;align=center;verticalAlign=middle;resizable=0;points=[];" vertex="1" connectable="0" parent="eRz7YMECNyyjDCqZuOSM-37">
          <mxGeometry x="-0.04" y="-1" relative="1" as="geometry">
            <mxPoint as="offset" />
          </mxGeometry>
        </mxCell>
        <mxCell id="eRz7YMECNyyjDCqZuOSM-38" style="edgeStyle=orthogonalEdgeStyle;rounded=0;orthogonalLoop=1;jettySize=auto;html=1;exitX=0.75;exitY=0;exitDx=0;exitDy=0;entryX=0.75;entryY=1;entryDx=0;entryDy=0;" edge="1" parent="IIilCcqDhFFno7Ei3CsS-9" source="eRz7YMECNyyjDCqZuOSM-20" target="IIilCcqDhFFno7Ei3CsS-33">
          <mxGeometry relative="1" as="geometry">
            <Array as="points">
              <mxPoint x="130" y="180" />
              <mxPoint x="130" y="180" />
            </Array>
          </mxGeometry>
        </mxCell>
        <mxCell id="eRz7YMECNyyjDCqZuOSM-74" value="Hash word" style="edgeLabel;html=1;align=center;verticalAlign=middle;resizable=0;points=[];" vertex="1" connectable="0" parent="eRz7YMECNyyjDCqZuOSM-38">
          <mxGeometry x="-0.02" y="1" relative="1" as="geometry">
            <mxPoint as="offset" />
          </mxGeometry>
        </mxCell>
        <mxCell id="eRz7YMECNyyjDCqZuOSM-40" style="edgeStyle=orthogonalEdgeStyle;rounded=0;orthogonalLoop=1;jettySize=auto;html=1;entryX=0.5;entryY=1;entryDx=0;entryDy=0;exitX=0.5;exitY=0;exitDx=0;exitDy=0;" edge="1" parent="IIilCcqDhFFno7Ei3CsS-9" source="IIilCcqDhFFno7Ei3CsS-33" target="IIilCcqDhFFno7Ei3CsS-11">
          <mxGeometry relative="1" as="geometry" />
        </mxCell>
        <mxCell id="eRz7YMECNyyjDCqZuOSM-73" value="Hash word" style="edgeLabel;html=1;align=center;verticalAlign=middle;resizable=0;points=[];" vertex="1" connectable="0" parent="eRz7YMECNyyjDCqZuOSM-40">
          <mxGeometry x="-0.1167" relative="1" as="geometry">
            <mxPoint x="20" y="8" as="offset" />
          </mxGeometry>
        </mxCell>
        <mxCell id="IIilCcqDhFFno7Ei3CsS-33" value="Hash function" style="rounded=1;whiteSpace=wrap;html=1;" parent="IIilCcqDhFFno7Ei3CsS-9" vertex="1">
          <mxGeometry x="40" y="120" width="120" height="40" as="geometry" />
        </mxCell>
        <mxCell id="eRz7YMECNyyjDCqZuOSM-29" style="edgeStyle=orthogonalEdgeStyle;rounded=0;orthogonalLoop=1;jettySize=auto;html=1;entryX=1;entryY=0.75;entryDx=0;entryDy=0;exitX=0;exitY=0.75;exitDx=0;exitDy=0;" edge="1" parent="IIilCcqDhFFno7Ei3CsS-9" source="IIilCcqDhFFno7Ei3CsS-12" target="IIilCcqDhFFno7Ei3CsS-11">
          <mxGeometry relative="1" as="geometry">
            <mxPoint x="170" y="60" as="sourcePoint" />
            <mxPoint x="250" y="60" as="targetPoint" />
            <Array as="points">
              <mxPoint x="230" y="70" />
              <mxPoint x="230" y="70" />
            </Array>
          </mxGeometry>
        </mxCell>
        <mxCell id="eRz7YMECNyyjDCqZuOSM-31" value="True / False" style="edgeLabel;html=1;align=center;verticalAlign=middle;resizable=0;points=[];" vertex="1" connectable="0" parent="eRz7YMECNyyjDCqZuOSM-29">
          <mxGeometry x="0.035" y="1" relative="1" as="geometry">
            <mxPoint x="2" y="-1" as="offset" />
          </mxGeometry>
        </mxCell>
        <mxCell id="IIilCcqDhFFno7Ei3CsS-14" value="Database" style="swimlane;whiteSpace=wrap;html=1;" parent="1" vertex="1">
          <mxGeometry x="1480" y="80" width="360" height="520" as="geometry">
            <mxRectangle x="400" y="200" width="130" height="30" as="alternateBounds" />
          </mxGeometry>
        </mxCell>
        <mxCell id="IIilCcqDhFFno7Ei3CsS-31" value="Comment" style="html=1;dashed=0;whiteSpace=wrap;shape=partialRectangle;right=0;" parent="IIilCcqDhFFno7Ei3CsS-14" vertex="1">
          <mxGeometry x="200" y="120" width="120" height="40" as="geometry" />
        </mxCell>
        <mxCell id="IIilCcqDhFFno7Ei3CsS-56" value="Sub comment" style="html=1;dashed=0;whiteSpace=wrap;shape=partialRectangle;right=0;" parent="IIilCcqDhFFno7Ei3CsS-14" vertex="1">
          <mxGeometry x="200" y="40" width="120" height="40" as="geometry" />
        </mxCell>
        <mxCell id="IIilCcqDhFFno7Ei3CsS-57" value="downlaod" style="html=1;dashed=0;whiteSpace=wrap;shape=partialRectangle;right=0;" parent="IIilCcqDhFFno7Ei3CsS-14" vertex="1">
          <mxGeometry x="40" y="120" width="120" height="40" as="geometry" />
        </mxCell>
        <mxCell id="IIilCcqDhFFno7Ei3CsS-58" value="user" style="html=1;dashed=0;whiteSpace=wrap;shape=partialRectangle;right=0;" parent="IIilCcqDhFFno7Ei3CsS-14" vertex="1">
          <mxGeometry x="40" y="40" width="120" height="40" as="geometry" />
        </mxCell>
        <mxCell id="IIilCcqDhFFno7Ei3CsS-59" value="thesis" style="html=1;dashed=0;whiteSpace=wrap;shape=partialRectangle;right=0;" parent="IIilCcqDhFFno7Ei3CsS-14" vertex="1">
          <mxGeometry x="40" y="280" width="120" height="40" as="geometry" />
        </mxCell>
        <mxCell id="IIilCcqDhFFno7Ei3CsS-60" value="statistic" style="html=1;dashed=0;whiteSpace=wrap;shape=partialRectangle;right=0;" parent="IIilCcqDhFFno7Ei3CsS-14" vertex="1">
          <mxGeometry x="40" y="200" width="120" height="40" as="geometry" />
        </mxCell>
        <mxCell id="IIilCcqDhFFno7Ei3CsS-61" value="notice" style="html=1;dashed=0;whiteSpace=wrap;shape=partialRectangle;right=0;" parent="IIilCcqDhFFno7Ei3CsS-14" vertex="1">
          <mxGeometry x="200" y="440" width="120" height="40" as="geometry" />
        </mxCell>
        <mxCell id="IIilCcqDhFFno7Ei3CsS-62" value="notice object" style="html=1;dashed=0;whiteSpace=wrap;shape=partialRectangle;right=0;" parent="IIilCcqDhFFno7Ei3CsS-14" vertex="1">
          <mxGeometry x="40" y="440" width="120" height="40" as="geometry" />
        </mxCell>
        <mxCell id="IIilCcqDhFFno7Ei3CsS-63" value="notice reciver" style="html=1;dashed=0;whiteSpace=wrap;shape=partialRectangle;right=0;" parent="IIilCcqDhFFno7Ei3CsS-14" vertex="1">
          <mxGeometry x="200" y="360" width="120" height="40" as="geometry" />
        </mxCell>
        <mxCell id="IIilCcqDhFFno7Ei3CsS-19" value="Student function" style="swimlane;whiteSpace=wrap;html=1;startSize=23;" parent="1" vertex="1">
          <mxGeometry x="480" y="560" width="200" height="200" as="geometry">
            <mxRectangle x="400" y="200" width="130" height="30" as="alternateBounds" />
          </mxGeometry>
        </mxCell>
        <mxCell id="IIilCcqDhFFno7Ei3CsS-20" value="Upload" style="rounded=1;whiteSpace=wrap;html=1;" parent="IIilCcqDhFFno7Ei3CsS-19" vertex="1">
          <mxGeometry x="40" y="40" width="120" height="40" as="geometry" />
        </mxCell>
        <mxCell id="IIilCcqDhFFno7Ei3CsS-81" value="Get thesis" style="rounded=1;whiteSpace=wrap;html=1;" parent="IIilCcqDhFFno7Ei3CsS-19" vertex="1">
          <mxGeometry x="40" y="120" width="120" height="40" as="geometry" />
        </mxCell>
        <mxCell id="IIilCcqDhFFno7Ei3CsS-24" value="Teacher function" style="swimlane;whiteSpace=wrap;html=1;startSize=23;" parent="1" vertex="1">
          <mxGeometry x="480" y="800" width="200" height="200" as="geometry">
            <mxRectangle x="400" y="200" width="130" height="30" as="alternateBounds" />
          </mxGeometry>
        </mxCell>
        <mxCell id="IIilCcqDhFFno7Ei3CsS-25" value="Get student thesis" style="rounded=1;whiteSpace=wrap;html=1;" parent="IIilCcqDhFFno7Ei3CsS-24" vertex="1">
          <mxGeometry x="40" y="40" width="120" height="40" as="geometry" />
        </mxCell>
        <mxCell id="IIilCcqDhFFno7Ei3CsS-83" value="Check thesis" style="rounded=1;whiteSpace=wrap;html=1;" parent="IIilCcqDhFFno7Ei3CsS-24" vertex="1">
          <mxGeometry x="40" y="120" width="120" height="40" as="geometry" />
        </mxCell>
        <mxCell id="IIilCcqDhFFno7Ei3CsS-34" style="edgeStyle=orthogonalEdgeStyle;rounded=0;orthogonalLoop=1;jettySize=auto;html=1;entryX=0;entryY=0.5;entryDx=0;entryDy=0;" parent="1" source="IIilCcqDhFFno7Ei3CsS-32" target="IIilCcqDhFFno7Ei3CsS-5" edge="1">
          <mxGeometry relative="1" as="geometry" />
        </mxCell>
        <mxCell id="IIilCcqDhFFno7Ei3CsS-35" style="edgeStyle=orthogonalEdgeStyle;rounded=0;orthogonalLoop=1;jettySize=auto;html=1;entryX=0;entryY=0.5;entryDx=0;entryDy=0;" parent="1" source="IIilCcqDhFFno7Ei3CsS-32" target="IIilCcqDhFFno7Ei3CsS-6" edge="1">
          <mxGeometry relative="1" as="geometry" />
        </mxCell>
        <mxCell id="IIilCcqDhFFno7Ei3CsS-36" style="edgeStyle=orthogonalEdgeStyle;rounded=0;orthogonalLoop=1;jettySize=auto;html=1;entryX=0;entryY=0.5;entryDx=0;entryDy=0;" parent="1" source="IIilCcqDhFFno7Ei3CsS-32" target="IIilCcqDhFFno7Ei3CsS-8" edge="1">
          <mxGeometry relative="1" as="geometry" />
        </mxCell>
        <mxCell id="IIilCcqDhFFno7Ei3CsS-37" style="edgeStyle=orthogonalEdgeStyle;rounded=0;orthogonalLoop=1;jettySize=auto;html=1;entryX=0;entryY=0.5;entryDx=0;entryDy=0;" parent="1" source="IIilCcqDhFFno7Ei3CsS-32" target="IIilCcqDhFFno7Ei3CsS-7" edge="1">
          <mxGeometry relative="1" as="geometry" />
        </mxCell>
        <mxCell id="IIilCcqDhFFno7Ei3CsS-76" style="edgeStyle=orthogonalEdgeStyle;rounded=0;orthogonalLoop=1;jettySize=auto;html=1;entryX=0;entryY=0.5;entryDx=0;entryDy=0;" parent="1" source="IIilCcqDhFFno7Ei3CsS-32" target="IIilCcqDhFFno7Ei3CsS-74" edge="1">
          <mxGeometry relative="1" as="geometry" />
        </mxCell>
        <mxCell id="IIilCcqDhFFno7Ei3CsS-77" style="edgeStyle=orthogonalEdgeStyle;rounded=0;orthogonalLoop=1;jettySize=auto;html=1;entryX=0;entryY=0.5;entryDx=0;entryDy=0;" parent="1" source="IIilCcqDhFFno7Ei3CsS-32" target="IIilCcqDhFFno7Ei3CsS-75" edge="1">
          <mxGeometry relative="1" as="geometry" />
        </mxCell>
        <mxCell id="eRz7YMECNyyjDCqZuOSM-1" style="edgeStyle=orthogonalEdgeStyle;rounded=0;orthogonalLoop=1;jettySize=auto;html=1;entryX=0;entryY=0.5;entryDx=0;entryDy=0;" edge="1" parent="1" source="IIilCcqDhFFno7Ei3CsS-32" target="IIilCcqDhFFno7Ei3CsS-51">
          <mxGeometry relative="1" as="geometry" />
        </mxCell>
        <mxCell id="IIilCcqDhFFno7Ei3CsS-32" value="User" style="html=1;dashed=0;whiteSpace=wrap;" parent="1" vertex="1">
          <mxGeometry x="80" y="280" width="120" height="40" as="geometry" />
        </mxCell>
        <mxCell id="IIilCcqDhFFno7Ei3CsS-38" value="API After login Server" style="swimlane;whiteSpace=wrap;html=1;" parent="1" vertex="1">
          <mxGeometry x="1200" y="760" width="432" height="1160" as="geometry">
            <mxRectangle x="400" y="200" width="130" height="30" as="alternateBounds" />
          </mxGeometry>
        </mxCell>
        <mxCell id="IIilCcqDhFFno7Ei3CsS-39" value="Get Thesis" style="rounded=1;whiteSpace=wrap;html=1;" parent="IIilCcqDhFFno7Ei3CsS-38" vertex="1">
          <mxGeometry x="40" y="120" width="120" height="40" as="geometry" />
        </mxCell>
        <mxCell id="IIilCcqDhFFno7Ei3CsS-40" value="Get thesis by keyword / Catagory" style="rounded=1;whiteSpace=wrap;html=1;" parent="IIilCcqDhFFno7Ei3CsS-38" vertex="1">
          <mxGeometry x="40" y="200" width="120" height="40" as="geometry" />
        </mxCell>
        <mxCell id="IIilCcqDhFFno7Ei3CsS-45" value="Delete theis" style="rounded=1;whiteSpace=wrap;html=1;" parent="IIilCcqDhFFno7Ei3CsS-38" vertex="1">
          <mxGeometry x="40" y="360" width="120" height="40" as="geometry" />
        </mxCell>
        <mxCell id="IIilCcqDhFFno7Ei3CsS-41" value="Comment Post" style="rounded=1;whiteSpace=wrap;html=1;" parent="IIilCcqDhFFno7Ei3CsS-38" vertex="1">
          <mxGeometry x="40" y="440" width="120" height="40" as="geometry" />
        </mxCell>
        <mxCell id="IIilCcqDhFFno7Ei3CsS-42" value="Comment delete" style="rounded=1;whiteSpace=wrap;html=1;" parent="IIilCcqDhFFno7Ei3CsS-38" vertex="1">
          <mxGeometry x="40" y="680" width="120" height="40" as="geometry" />
        </mxCell>
        <mxCell id="IIilCcqDhFFno7Ei3CsS-43" value="Get comment" style="rounded=1;whiteSpace=wrap;html=1;" parent="IIilCcqDhFFno7Ei3CsS-38" vertex="1">
          <mxGeometry x="40" y="520" width="120" height="40" as="geometry" />
        </mxCell>
        <mxCell id="IIilCcqDhFFno7Ei3CsS-46" value="Update theis" style="rounded=1;whiteSpace=wrap;html=1;" parent="IIilCcqDhFFno7Ei3CsS-38" vertex="1">
          <mxGeometry x="40" y="280" width="120" height="40" as="geometry" />
        </mxCell>
        <mxCell id="IIilCcqDhFFno7Ei3CsS-47" value="Create Thesis" style="rounded=1;whiteSpace=wrap;html=1;" parent="IIilCcqDhFFno7Ei3CsS-38" vertex="1">
          <mxGeometry x="40" y="40" width="120" height="40" as="geometry" />
        </mxCell>
        <mxCell id="IIilCcqDhFFno7Ei3CsS-48" value="Comment edit" style="rounded=1;whiteSpace=wrap;html=1;" parent="IIilCcqDhFFno7Ei3CsS-38" vertex="1">
          <mxGeometry x="40" y="600" width="120" height="40" as="geometry" />
        </mxCell>
        <mxCell id="IIilCcqDhFFno7Ei3CsS-69" value="Create notification" style="rounded=1;whiteSpace=wrap;html=1;" parent="IIilCcqDhFFno7Ei3CsS-38" vertex="1">
          <mxGeometry x="40" y="760" width="120" height="40" as="geometry" />
        </mxCell>
        <mxCell id="IIilCcqDhFFno7Ei3CsS-70" value="Send notification" style="rounded=1;whiteSpace=wrap;html=1;" parent="IIilCcqDhFFno7Ei3CsS-38" vertex="1">
          <mxGeometry x="40" y="840" width="120" height="40" as="geometry" />
        </mxCell>
        <mxCell id="IIilCcqDhFFno7Ei3CsS-71" value="Download thesis" style="rounded=1;whiteSpace=wrap;html=1;" parent="IIilCcqDhFFno7Ei3CsS-38" vertex="1">
          <mxGeometry x="40" y="920" width="120" height="40" as="geometry" />
        </mxCell>
        <mxCell id="IIilCcqDhFFno7Ei3CsS-72" value="Send log" style="rounded=1;whiteSpace=wrap;html=1;" parent="IIilCcqDhFFno7Ei3CsS-38" vertex="1">
          <mxGeometry x="40" y="1000" width="120" height="40" as="geometry" />
        </mxCell>
        <mxCell id="IIilCcqDhFFno7Ei3CsS-73" value="Get statistic" style="rounded=1;whiteSpace=wrap;html=1;" parent="IIilCcqDhFFno7Ei3CsS-38" vertex="1">
          <mxGeometry x="40" y="1080" width="120" height="40" as="geometry" />
        </mxCell>
        <mxCell id="IIilCcqDhFFno7Ei3CsS-52" value="Student API" style="swimlane;whiteSpace=wrap;html=1;" parent="1" vertex="1">
          <mxGeometry x="720" y="480" width="190" height="280" as="geometry">
            <mxRectangle x="400" y="200" width="130" height="30" as="alternateBounds" />
          </mxGeometry>
        </mxCell>
        <mxCell id="IIilCcqDhFFno7Ei3CsS-64" value="Create student thesis" style="rounded=1;whiteSpace=wrap;html=1;" parent="IIilCcqDhFFno7Ei3CsS-52" vertex="1">
          <mxGeometry x="40" y="40" width="120" height="40" as="geometry" />
        </mxCell>
        <mxCell id="IIilCcqDhFFno7Ei3CsS-66" value="Get student thesis" style="rounded=1;whiteSpace=wrap;html=1;" parent="IIilCcqDhFFno7Ei3CsS-52" vertex="1">
          <mxGeometry x="40" y="120" width="120" height="40" as="geometry" />
        </mxCell>
        <mxCell id="IIilCcqDhFFno7Ei3CsS-67" value="Update student thesis" style="rounded=1;whiteSpace=wrap;html=1;" parent="IIilCcqDhFFno7Ei3CsS-52" vertex="1">
          <mxGeometry x="40" y="200" width="120" height="40" as="geometry" />
        </mxCell>
        <mxCell id="IIilCcqDhFFno7Ei3CsS-54" value="Teacher API" style="swimlane;whiteSpace=wrap;html=1;" parent="1" vertex="1">
          <mxGeometry x="720" y="800" width="200" height="200" as="geometry">
            <mxRectangle x="400" y="200" width="130" height="30" as="alternateBounds" />
          </mxGeometry>
        </mxCell>
        <mxCell id="IIilCcqDhFFno7Ei3CsS-65" value="Get student thesis" style="rounded=1;whiteSpace=wrap;html=1;" parent="IIilCcqDhFFno7Ei3CsS-54" vertex="1">
          <mxGeometry x="40" y="40" width="120" height="40" as="geometry" />
        </mxCell>
        <mxCell id="IIilCcqDhFFno7Ei3CsS-68" value="Approve" style="rounded=1;whiteSpace=wrap;html=1;" parent="IIilCcqDhFFno7Ei3CsS-54" vertex="1">
          <mxGeometry x="40" y="120" width="120" height="40" as="geometry" />
        </mxCell>
        <mxCell id="IIilCcqDhFFno7Ei3CsS-78" style="edgeStyle=orthogonalEdgeStyle;rounded=0;orthogonalLoop=1;jettySize=auto;html=1;" parent="1" source="IIilCcqDhFFno7Ei3CsS-74" target="IIilCcqDhFFno7Ei3CsS-20" edge="1">
          <mxGeometry relative="1" as="geometry" />
        </mxCell>
        <mxCell id="IIilCcqDhFFno7Ei3CsS-82" style="edgeStyle=orthogonalEdgeStyle;rounded=0;orthogonalLoop=1;jettySize=auto;html=1;entryX=0;entryY=0.5;entryDx=0;entryDy=0;" parent="1" source="IIilCcqDhFFno7Ei3CsS-74" target="IIilCcqDhFFno7Ei3CsS-81" edge="1">
          <mxGeometry relative="1" as="geometry" />
        </mxCell>
        <mxCell id="IIilCcqDhFFno7Ei3CsS-74" value="Student" style="html=1;dashed=0;whiteSpace=wrap;" parent="1" vertex="1">
          <mxGeometry x="280" y="600" width="120" height="40" as="geometry" />
        </mxCell>
        <mxCell id="IIilCcqDhFFno7Ei3CsS-79" style="edgeStyle=orthogonalEdgeStyle;rounded=0;orthogonalLoop=1;jettySize=auto;html=1;entryX=0;entryY=0.5;entryDx=0;entryDy=0;" parent="1" source="IIilCcqDhFFno7Ei3CsS-75" target="IIilCcqDhFFno7Ei3CsS-25" edge="1">
          <mxGeometry relative="1" as="geometry" />
        </mxCell>
        <mxCell id="IIilCcqDhFFno7Ei3CsS-84" style="edgeStyle=orthogonalEdgeStyle;rounded=0;orthogonalLoop=1;jettySize=auto;html=1;entryX=0;entryY=0.5;entryDx=0;entryDy=0;" parent="1" source="IIilCcqDhFFno7Ei3CsS-75" target="IIilCcqDhFFno7Ei3CsS-83" edge="1">
          <mxGeometry relative="1" as="geometry" />
        </mxCell>
        <mxCell id="IIilCcqDhFFno7Ei3CsS-75" value="Teacher" style="html=1;dashed=0;whiteSpace=wrap;" parent="1" vertex="1">
          <mxGeometry x="280" y="840" width="120" height="40" as="geometry" />
        </mxCell>
        <mxCell id="IIilCcqDhFFno7Ei3CsS-80" style="edgeStyle=orthogonalEdgeStyle;rounded=0;orthogonalLoop=1;jettySize=auto;html=1;entryX=0;entryY=0.5;entryDx=0;entryDy=0;" parent="1" source="IIilCcqDhFFno7Ei3CsS-20" target="IIilCcqDhFFno7Ei3CsS-64" edge="1">
          <mxGeometry relative="1" as="geometry" />
        </mxCell>
        <mxCell id="IIilCcqDhFFno7Ei3CsS-85" style="edgeStyle=orthogonalEdgeStyle;rounded=0;orthogonalLoop=1;jettySize=auto;html=1;" parent="1" source="IIilCcqDhFFno7Ei3CsS-25" edge="1">
          <mxGeometry relative="1" as="geometry">
            <mxPoint x="760" y="850" as="targetPoint" />
            <Array as="points">
              <mxPoint x="760" y="850" />
            </Array>
          </mxGeometry>
        </mxCell>
        <mxCell id="IIilCcqDhFFno7Ei3CsS-86" style="edgeStyle=orthogonalEdgeStyle;rounded=0;orthogonalLoop=1;jettySize=auto;html=1;entryX=1;entryY=0.75;entryDx=0;entryDy=0;" parent="1" source="IIilCcqDhFFno7Ei3CsS-65" target="IIilCcqDhFFno7Ei3CsS-25" edge="1">
          <mxGeometry relative="1" as="geometry">
            <Array as="points">
              <mxPoint x="730" y="870" />
              <mxPoint x="730" y="870" />
            </Array>
          </mxGeometry>
        </mxCell>
        <mxCell id="IIilCcqDhFFno7Ei3CsS-87" style="edgeStyle=orthogonalEdgeStyle;rounded=0;orthogonalLoop=1;jettySize=auto;html=1;entryX=0;entryY=0.5;entryDx=0;entryDy=0;" parent="1" source="IIilCcqDhFFno7Ei3CsS-83" target="IIilCcqDhFFno7Ei3CsS-68" edge="1">
          <mxGeometry relative="1" as="geometry" />
        </mxCell>
        <mxCell id="IIilCcqDhFFno7Ei3CsS-88" style="edgeStyle=orthogonalEdgeStyle;rounded=0;orthogonalLoop=1;jettySize=auto;html=1;entryX=0;entryY=0.5;entryDx=0;entryDy=0;exitX=1;exitY=0.5;exitDx=0;exitDy=0;" parent="1" source="IIilCcqDhFFno7Ei3CsS-68" target="IIilCcqDhFFno7Ei3CsS-46" edge="1">
          <mxGeometry relative="1" as="geometry">
            <Array as="points">
              <mxPoint x="1150" y="1270" />
              <mxPoint x="1150" y="1060" />
            </Array>
          </mxGeometry>
        </mxCell>
        <mxCell id="IIilCcqDhFFno7Ei3CsS-89" style="edgeStyle=orthogonalEdgeStyle;rounded=0;orthogonalLoop=1;jettySize=auto;html=1;entryX=0;entryY=0.5;entryDx=0;entryDy=0;" parent="1" source="IIilCcqDhFFno7Ei3CsS-65" target="IIilCcqDhFFno7Ei3CsS-40" edge="1">
          <mxGeometry relative="1" as="geometry">
            <Array as="points">
              <mxPoint x="1120" y="1190" />
              <mxPoint x="1120" y="980" />
            </Array>
          </mxGeometry>
        </mxCell>
        <mxCell id="yefg0WoXISoBtYHqCvty-1" style="edgeStyle=orthogonalEdgeStyle;rounded=0;orthogonalLoop=1;jettySize=auto;html=1;entryX=0;entryY=0.5;entryDx=0;entryDy=0;" parent="1" source="IIilCcqDhFFno7Ei3CsS-8" target="IIilCcqDhFFno7Ei3CsS-11" edge="1">
          <mxGeometry relative="1" as="geometry" />
        </mxCell>
        <mxCell id="eRz7YMECNyyjDCqZuOSM-25" value="Username &amp;amp; Password" style="edgeLabel;html=1;align=center;verticalAlign=middle;resizable=0;points=[];" vertex="1" connectable="0" parent="yefg0WoXISoBtYHqCvty-1">
          <mxGeometry x="-0.0738" y="1" relative="1" as="geometry">
            <mxPoint x="9" y="1" as="offset" />
          </mxGeometry>
        </mxCell>
        <mxCell id="eRz7YMECNyyjDCqZuOSM-5" style="edgeStyle=orthogonalEdgeStyle;rounded=0;orthogonalLoop=1;jettySize=auto;html=1;entryX=0;entryY=0.25;entryDx=0;entryDy=0;exitX=1;exitY=0.25;exitDx=0;exitDy=0;" edge="1" parent="1" source="IIilCcqDhFFno7Ei3CsS-7" target="eRz7YMECNyyjDCqZuOSM-20">
          <mxGeometry relative="1" as="geometry">
            <Array as="points">
              <mxPoint x="670" y="210" />
              <mxPoint x="670" y="290" />
            </Array>
          </mxGeometry>
        </mxCell>
        <mxCell id="eRz7YMECNyyjDCqZuOSM-15" value="Username &amp;amp; Password" style="edgeLabel;html=1;align=center;verticalAlign=middle;resizable=0;points=[];" vertex="1" connectable="0" parent="eRz7YMECNyyjDCqZuOSM-5">
          <mxGeometry x="-0.1119" relative="1" as="geometry">
            <mxPoint x="-22" as="offset" />
          </mxGeometry>
        </mxCell>
        <mxCell id="eRz7YMECNyyjDCqZuOSM-26" style="edgeStyle=orthogonalEdgeStyle;rounded=0;orthogonalLoop=1;jettySize=auto;html=1;entryX=1;entryY=0.75;entryDx=0;entryDy=0;exitX=0;exitY=0.75;exitDx=0;exitDy=0;" edge="1" parent="1" source="eRz7YMECNyyjDCqZuOSM-20" target="IIilCcqDhFFno7Ei3CsS-7">
          <mxGeometry relative="1" as="geometry">
            <Array as="points">
              <mxPoint x="650" y="310" />
              <mxPoint x="650" y="230" />
            </Array>
          </mxGeometry>
        </mxCell>
        <mxCell id="eRz7YMECNyyjDCqZuOSM-27" value="Home page" style="edgeLabel;html=1;align=center;verticalAlign=middle;resizable=0;points=[];" vertex="1" connectable="0" parent="eRz7YMECNyyjDCqZuOSM-26">
          <mxGeometry x="-0.1446" y="-1" relative="1" as="geometry">
            <mxPoint x="-51" y="-13" as="offset" />
          </mxGeometry>
        </mxCell>
        <mxCell id="eRz7YMECNyyjDCqZuOSM-67" style="rounded=0;orthogonalLoop=1;jettySize=auto;html=1;entryX=0.5;entryY=0;entryDx=0;entryDy=0;exitX=0.5;exitY=0;exitDx=0;exitDy=0;edgeStyle=orthogonalEdgeStyle;" edge="1" parent="1" source="IIilCcqDhFFno7Ei3CsS-11" target="eRz7YMECNyyjDCqZuOSM-66">
          <mxGeometry relative="1" as="geometry">
            <Array as="points">
              <mxPoint x="780" y="40" />
              <mxPoint x="1300" y="40" />
            </Array>
          </mxGeometry>
        </mxCell>
        <mxCell id="eRz7YMECNyyjDCqZuOSM-68" value="Username &amp;amp; Hash word" style="edgeLabel;html=1;align=center;verticalAlign=middle;resizable=0;points=[];" vertex="1" connectable="0" parent="eRz7YMECNyyjDCqZuOSM-67">
          <mxGeometry x="0.0683" y="-2" relative="1" as="geometry">
            <mxPoint x="-32" y="-2" as="offset" />
          </mxGeometry>
        </mxCell>
        <mxCell id="eRz7YMECNyyjDCqZuOSM-47" value="API Database" style="swimlane;whiteSpace=wrap;html=1;" vertex="1" parent="1">
          <mxGeometry x="1200" y="80" width="200" height="280" as="geometry">
            <mxRectangle x="400" y="200" width="130" height="30" as="alternateBounds" />
          </mxGeometry>
        </mxCell>
        <mxCell id="eRz7YMECNyyjDCqZuOSM-48" style="edgeStyle=orthogonalEdgeStyle;rounded=0;orthogonalLoop=1;jettySize=auto;html=1;entryX=0;entryY=0.25;entryDx=0;entryDy=0;exitX=1;exitY=0.25;exitDx=0;exitDy=0;" edge="1" parent="eRz7YMECNyyjDCqZuOSM-47" target="eRz7YMECNyyjDCqZuOSM-54">
          <mxGeometry relative="1" as="geometry">
            <mxPoint x="160" y="50" as="sourcePoint" />
            <Array as="points">
              <mxPoint x="250" y="50" />
              <mxPoint x="250" y="50" />
            </Array>
          </mxGeometry>
        </mxCell>
        <mxCell id="eRz7YMECNyyjDCqZuOSM-49" value="Username" style="edgeLabel;html=1;align=center;verticalAlign=middle;resizable=0;points=[];" vertex="1" connectable="0" parent="eRz7YMECNyyjDCqZuOSM-48">
          <mxGeometry x="-0.195" y="1" relative="1" as="geometry">
            <mxPoint x="12" y="1" as="offset" />
          </mxGeometry>
        </mxCell>
        <mxCell id="eRz7YMECNyyjDCqZuOSM-50" style="edgeStyle=orthogonalEdgeStyle;rounded=0;orthogonalLoop=1;jettySize=auto;html=1;entryX=0.25;entryY=0;entryDx=0;entryDy=0;exitX=0.25;exitY=1;exitDx=0;exitDy=0;" edge="1" parent="eRz7YMECNyyjDCqZuOSM-47" target="eRz7YMECNyyjDCqZuOSM-61">
          <mxGeometry relative="1" as="geometry">
            <mxPoint x="70" y="80" as="sourcePoint" />
          </mxGeometry>
        </mxCell>
        <mxCell id="eRz7YMECNyyjDCqZuOSM-58" style="edgeStyle=orthogonalEdgeStyle;rounded=0;orthogonalLoop=1;jettySize=auto;html=1;entryX=0.5;entryY=0;entryDx=0;entryDy=0;" edge="1" parent="eRz7YMECNyyjDCqZuOSM-47" target="eRz7YMECNyyjDCqZuOSM-57">
          <mxGeometry relative="1" as="geometry">
            <mxPoint x="100" y="160" as="sourcePoint" />
          </mxGeometry>
        </mxCell>
        <mxCell id="eRz7YMECNyyjDCqZuOSM-59" style="edgeStyle=orthogonalEdgeStyle;rounded=0;orthogonalLoop=1;jettySize=auto;html=1;exitX=1;exitY=0.25;exitDx=0;exitDy=0;" edge="1" parent="eRz7YMECNyyjDCqZuOSM-47" source="eRz7YMECNyyjDCqZuOSM-57">
          <mxGeometry relative="1" as="geometry">
            <mxPoint x="160" y="140" as="targetPoint" />
            <Array as="points">
              <mxPoint x="180" y="210" />
              <mxPoint x="180" y="140" />
            </Array>
          </mxGeometry>
        </mxCell>
        <mxCell id="eRz7YMECNyyjDCqZuOSM-60" style="edgeStyle=orthogonalEdgeStyle;rounded=0;orthogonalLoop=1;jettySize=auto;html=1;entryX=0.75;entryY=1;entryDx=0;entryDy=0;exitX=0.75;exitY=0;exitDx=0;exitDy=0;" edge="1" parent="eRz7YMECNyyjDCqZuOSM-47" source="eRz7YMECNyyjDCqZuOSM-61">
          <mxGeometry relative="1" as="geometry">
            <mxPoint x="130" y="80" as="targetPoint" />
          </mxGeometry>
        </mxCell>
        <mxCell id="eRz7YMECNyyjDCqZuOSM-62" style="edgeStyle=orthogonalEdgeStyle;rounded=0;orthogonalLoop=1;jettySize=auto;html=1;entryX=1;entryY=0.75;entryDx=0;entryDy=0;exitX=0;exitY=0.75;exitDx=0;exitDy=0;" edge="1" parent="eRz7YMECNyyjDCqZuOSM-47" source="eRz7YMECNyyjDCqZuOSM-54">
          <mxGeometry relative="1" as="geometry">
            <mxPoint x="170" y="60" as="sourcePoint" />
            <mxPoint x="160" y="70" as="targetPoint" />
            <Array as="points">
              <mxPoint x="230" y="70" />
              <mxPoint x="230" y="70" />
            </Array>
          </mxGeometry>
        </mxCell>
        <mxCell id="eRz7YMECNyyjDCqZuOSM-63" value="True / False" style="edgeLabel;html=1;align=center;verticalAlign=middle;resizable=0;points=[];" vertex="1" connectable="0" parent="eRz7YMECNyyjDCqZuOSM-62">
          <mxGeometry x="0.035" y="1" relative="1" as="geometry">
            <mxPoint x="2" y="-1" as="offset" />
          </mxGeometry>
        </mxCell>
        <mxCell id="eRz7YMECNyyjDCqZuOSM-76" style="edgeStyle=orthogonalEdgeStyle;rounded=0;orthogonalLoop=1;jettySize=auto;html=1;exitX=0;exitY=0.25;exitDx=0;exitDy=0;" edge="1" parent="eRz7YMECNyyjDCqZuOSM-47" source="eRz7YMECNyyjDCqZuOSM-66">
          <mxGeometry relative="1" as="geometry">
            <mxPoint x="-120" y="50" as="targetPoint" />
            <Array as="points">
              <mxPoint x="20" y="50" />
              <mxPoint x="20" y="50" />
            </Array>
          </mxGeometry>
        </mxCell>
        <mxCell id="eRz7YMECNyyjDCqZuOSM-77" value="Username" style="edgeLabel;html=1;align=center;verticalAlign=middle;resizable=0;points=[];" vertex="1" connectable="0" parent="eRz7YMECNyyjDCqZuOSM-76">
          <mxGeometry x="0.3543" relative="1" as="geometry">
            <mxPoint x="29" as="offset" />
          </mxGeometry>
        </mxCell>
        <mxCell id="eRz7YMECNyyjDCqZuOSM-66" value="User Database" style="rounded=1;whiteSpace=wrap;html=1;" vertex="1" parent="eRz7YMECNyyjDCqZuOSM-47">
          <mxGeometry x="40" y="40" width="120" height="40" as="geometry" />
        </mxCell>
        <mxCell id="eRz7YMECNyyjDCqZuOSM-69" style="edgeStyle=orthogonalEdgeStyle;rounded=0;orthogonalLoop=1;jettySize=auto;html=1;entryX=0;entryY=0.75;entryDx=0;entryDy=0;exitX=1;exitY=0.75;exitDx=0;exitDy=0;" edge="1" parent="1" source="IIilCcqDhFFno7Ei3CsS-12" target="eRz7YMECNyyjDCqZuOSM-66">
          <mxGeometry relative="1" as="geometry">
            <Array as="points">
              <mxPoint x="1230" y="150" />
              <mxPoint x="1230" y="150" />
            </Array>
          </mxGeometry>
        </mxCell>
        <mxCell id="eRz7YMECNyyjDCqZuOSM-71" value="Request Username" style="edgeLabel;html=1;align=center;verticalAlign=middle;resizable=0;points=[];" vertex="1" connectable="0" parent="eRz7YMECNyyjDCqZuOSM-69">
          <mxGeometry x="-0.3775" y="-1" relative="1" as="geometry">
            <mxPoint x="30" y="-1" as="offset" />
          </mxGeometry>
        </mxCell>
        <mxCell id="eRz7YMECNyyjDCqZuOSM-82" style="edgeStyle=orthogonalEdgeStyle;rounded=0;orthogonalLoop=1;jettySize=auto;html=1;entryX=0;entryY=0.25;entryDx=0;entryDy=0;exitX=1;exitY=0.25;exitDx=0;exitDy=0;" edge="1" parent="1" source="eRz7YMECNyyjDCqZuOSM-66" target="IIilCcqDhFFno7Ei3CsS-58">
          <mxGeometry relative="1" as="geometry">
            <mxPoint x="1460" y="140" as="targetPoint" />
          </mxGeometry>
        </mxCell>
        <mxCell id="eRz7YMECNyyjDCqZuOSM-83" value="Username &amp;amp; Hash word" style="edgeLabel;html=1;align=center;verticalAlign=middle;resizable=0;points=[];" vertex="1" connectable="0" parent="eRz7YMECNyyjDCqZuOSM-82">
          <mxGeometry x="-0.1577" relative="1" as="geometry">
            <mxPoint x="12" as="offset" />
          </mxGeometry>
        </mxCell>
        <mxCell id="eRz7YMECNyyjDCqZuOSM-84" style="edgeStyle=orthogonalEdgeStyle;rounded=0;orthogonalLoop=1;jettySize=auto;html=1;entryX=1;entryY=0.75;entryDx=0;entryDy=0;exitX=0;exitY=0.75;exitDx=0;exitDy=0;" edge="1" parent="1" source="IIilCcqDhFFno7Ei3CsS-58" target="eRz7YMECNyyjDCqZuOSM-66">
          <mxGeometry relative="1" as="geometry" />
        </mxCell>
        <mxCell id="eRz7YMECNyyjDCqZuOSM-85" value="List Username" style="edgeLabel;html=1;align=center;verticalAlign=middle;resizable=0;points=[];" vertex="1" connectable="0" parent="eRz7YMECNyyjDCqZuOSM-84">
          <mxGeometry x="0.1101" relative="1" as="geometry">
            <mxPoint x="9" as="offset" />
          </mxGeometry>
        </mxCell>
      </root>
    </mxGraphModel>
  </diagram>
</mxfile>
